<svg width="400" height="400" viewBox="0 0 400 400" fill="none" xmlns="http://www.w3.org/2000/svg">
<path d="M77 302C94 289 113 278.75 134 271.25C155 263.75 177 260 200 260C223 260 245 263.75 266 271.25C287 278.75 306 289 323 302C334.667 288.333 343.75 272.833 350.25 255.5C356.75 238.167 360 219.667 360 200C360 155.667 344.417 117.917 313.25 86.75C282.083 55.5833 244.333 40 200 40C155.667 40 117.917 55.5833 86.75 86.75C55.5833 117.917 40 155.667 40 200C40 219.667 43.25 238.167 49.75 255.5C56.25 272.833 65.3333 288.333 77 302ZM200 220C180.333 220 163.75 213.25 150.25 199.75C136.75 186.25 130 169.667 130 150C130 130.333 136.75 113.75 150.25 100.25C163.75 86.75 180.333 80 200 80C219.667 80 236.25 86.75 249.75 100.25C263.25 113.75 270 130.333 270 150C270 169.667 263.25 186.25 249.75 199.75C236.25 213.25 219.667 220 200 220ZM200 400C172.333 400 146.333 394.75 122 384.25C97.6667 373.75 76.5 359.5 58.5 341.5C40.5 323.5 26.25 302.333 15.75 278C5.25 253.667 0 227.667 0 200C0 172.333 5.25 146.333 15.75 122C26.25 97.6667 40.5 76.5 58.5 58.5C76.5 40.5 97.6667 26.25 122 15.75C146.333 5.25 172.333 0 200 0C227.667 0 253.667 5.25 278 15.75C302.333 26.25 323.5 40.5 341.5 58.5C359.5 76.5 373.75 97.6667 384.25 122C394.75 146.333 400 172.333 400 200C400 227.667 394.75 253.667 384.25 278C373.75 302.333 359.5 323.5 341.5 341.5C323.5 359.5 302.333 373.75 278 384.25C253.667 394.75 227.667 400 200 400Z" fill="#C9B6A4"/>
</svg>
