<svg width="462" height="462" viewBox="0 0 462 462" fill="none" xmlns="http://www.w3.org/2000/svg">
<mask id="mask0_418_966" style="mask-type:luminance" maskUnits="userSpaceOnUse" x="0" y="0" width="462" height="462">
<path d="M14 140H0V154H14V140Z" fill="white"/>
<path d="M14 238H0V252H14V238Z" fill="white"/>
<path d="M14 252H0V266H14V252Z" fill="white"/>
<path d="M14 266H0V280H14V266Z" fill="white"/>
<path d="M14 294H0V308H14V294Z" fill="white"/>
<path d="M14 322H0V336H14V322Z" fill="white"/>
<path d="M28 112H14V126H28V112Z" fill="white"/>
<path d="M28 126H14V140H28V126Z" fill="white"/>
<path d="M28 140H14V154H28V140Z" fill="white"/>
<path d="M28 154H14V168H28V154Z" fill="white"/>
<path d="M28 182H14V196H28V182Z" fill="white"/>
<path d="M28 224H14V238H28V224Z" fill="white"/>
<path d="M28 252H14V266H28V252Z" fill="white"/>
<path d="M28 294H14V308H28V294Z" fill="white"/>
<path d="M28 322H14V336H28V322Z" fill="white"/>
<path d="M28 336H14V350H28V336Z" fill="white"/>
<path d="M42 112H28V126H42V112Z" fill="white"/>
<path d="M42 126H28V140H42V126Z" fill="white"/>
<path d="M42 154H28V168H42V154Z" fill="white"/>
<path d="M42 182H28V196H42V182Z" fill="white"/>
<path d="M42 196H28V210H42V196Z" fill="white"/>
<path d="M42 210H28V224H42V210Z" fill="white"/>
<path d="M42 224H28V238H42V224Z" fill="white"/>
<path d="M42 238H28V252H42V238Z" fill="white"/>
<path d="M42 266H28V280H42V266Z" fill="white"/>
<path d="M42 280H28V294H42V280Z" fill="white"/>
<path d="M56 140H42V154H56V140Z" fill="white"/>
<path d="M56 210H42V224H56V210Z" fill="white"/>
<path d="M56 224H42V238H56V224Z" fill="white"/>
<path d="M56 266H42V280H56V266Z" fill="white"/>
<path d="M56 280H42V294H56V280Z" fill="white"/>
<path d="M56 322H42V336H56V322Z" fill="white"/>
<path d="M70 154H56V168H70V154Z" fill="white"/>
<path d="M70 182H56V196H70V182Z" fill="white"/>
<path d="M70 280H56V294H70V280Z" fill="white"/>
<path d="M70 294H56V308H70V294Z" fill="white"/>
<path d="M70 336H56V350H70V336Z" fill="white"/>
<path d="M84 140H70V154H84V140Z" fill="white"/>
<path d="M84 154H70V168H84V154Z" fill="white"/>
<path d="M84 196H70V210H84V196Z" fill="white"/>
<path d="M84 210H70V224H84V210Z" fill="white"/>
<path d="M84 224H70V238H84V224Z" fill="white"/>
<path d="M84 238H70V252H84V238Z" fill="white"/>
<path d="M84 252H70V266H84V252Z" fill="white"/>
<path d="M84 266H70V280H84V266Z" fill="white"/>
<path d="M84 280H70V294H84V280Z" fill="white"/>
<path d="M84 294H70V308H84V294Z" fill="white"/>
<path d="M84 336H70V350H84V336Z" fill="white"/>
<path d="M98 112H84V126H98V112Z" fill="white"/>
<path d="M98 140H84V154H98V140Z" fill="white"/>
<path d="M98 168H84V182H98V168Z" fill="white"/>
<path d="M98 196H84V210H98V196Z" fill="white"/>
<path d="M98 224H84V238H98V224Z" fill="white"/>
<path d="M98 252H84V266H98V252Z" fill="white"/>
<path d="M98 280H84V294H98V280Z" fill="white"/>
<path d="M98 308H84V322H98V308Z" fill="white"/>
<path d="M98 336H84V350H98V336Z" fill="white"/>
<path d="M112 168H98V182H112V168Z" fill="white"/>
<path d="M112 238H98V252H112V238Z" fill="white"/>
<path d="M112 280H98V294H112V280Z" fill="white"/>
<path d="M126 14H112V28H126V14Z" fill="white"/>
<path d="M126 28H112V42H126V28Z" fill="white"/>
<path d="M126 42H112V56H126V42Z" fill="white"/>
<path d="M126 70H112V84H126V70Z" fill="white"/>
<path d="M126 84H112V98H126V84Z" fill="white"/>
<path d="M126 182H112V196H126V182Z" fill="white"/>
<path d="M126 210H112V224H126V210Z" fill="white"/>
<path d="M126 238H112V252H126V238Z" fill="white"/>
<path d="M126 252H112V266H126V252Z" fill="white"/>
<path d="M126 266H112V280H126V266Z" fill="white"/>
<path d="M126 294H112V308H126V294Z" fill="white"/>
<path d="M126 322H112V336H126V322Z" fill="white"/>
<path d="M126 420H112V434H126V420Z" fill="white"/>
<path d="M126 434H112V448H126V434Z" fill="white"/>
<path d="M140 42H126V56H140V42Z" fill="white"/>
<path d="M140 56H126V70H140V56Z" fill="white"/>
<path d="M140 70H126V84H140V70Z" fill="white"/>
<path d="M140 98H126V112H140V98Z" fill="white"/>
<path d="M140 126H126V140H140V126Z" fill="white"/>
<path d="M140 154H126V168H140V154Z" fill="white"/>
<path d="M140 168H126V182H140V168Z" fill="white"/>
<path d="M140 182H126V196H140V182Z" fill="white"/>
<path d="M140 252H126V266H140V252Z" fill="white"/>
<path d="M140 266H126V280H140V266Z" fill="white"/>
<path d="M140 280H126V294H140V280Z" fill="white"/>
<path d="M140 308H126V322H140V308Z" fill="white"/>
<path d="M140 322H126V336H140V322Z" fill="white"/>
<path d="M140 364H126V378H140V364Z" fill="white"/>
<path d="M140 378H126V392H140V378Z" fill="white"/>
<path d="M140 406H126V420H140V406Z" fill="white"/>
<path d="M140 420H126V434H140V420Z" fill="white"/>
<path d="M140 448H126V462H140V448Z" fill="white"/>
<path d="M154 0H140V14H154V0Z" fill="white"/>
<path d="M154 28H140V42H154V28Z" fill="white"/>
<path d="M154 42H140V56H154V42Z" fill="white"/>
<path d="M154 70H140V84H154V70Z" fill="white"/>
<path d="M154 84H140V98H154V84Z" fill="white"/>
<path d="M154 112H140V126H154V112Z" fill="white"/>
<path d="M154 126H140V140H154V126Z" fill="white"/>
<path d="M154 154H140V168H154V154Z" fill="white"/>
<path d="M154 182H140V196H154V182Z" fill="white"/>
<path d="M154 210H140V224H154V210Z" fill="white"/>
<path d="M154 238H140V252H154V238Z" fill="white"/>
<path d="M154 294H140V308H154V294Z" fill="white"/>
<path d="M154 308H140V322H154V308Z" fill="white"/>
<path d="M154 322H140V336H154V322Z" fill="white"/>
<path d="M154 364H140V378H154V364Z" fill="white"/>
<path d="M154 378H140V392H154V378Z" fill="white"/>
<path d="M154 392H140V406H154V392Z" fill="white"/>
<path d="M154 406H140V420H154V406Z" fill="white"/>
<path d="M154 448H140V462H154V448Z" fill="white"/>
<path d="M168 0H154V14H168V0Z" fill="white"/>
<path d="M168 14H154V28H168V14Z" fill="white"/>
<path d="M168 154H154V168H168V154Z" fill="white"/>
<path d="M168 182H154V196H168V182Z" fill="white"/>
<path d="M168 224H154V238H168V224Z" fill="white"/>
<path d="M168 252H154V266H168V252Z" fill="white"/>
<path d="M168 266H154V280H168V266Z" fill="white"/>
<path d="M168 322H154V336H168V322Z" fill="white"/>
<path d="M168 336H154V350H168V336Z" fill="white"/>
<path d="M168 378H154V392H168V378Z" fill="white"/>
<path d="M168 406H154V420H168V406Z" fill="white"/>
<path d="M182 0H168V14H182V0Z" fill="white"/>
<path d="M182 84H168V98H182V84Z" fill="white"/>
<path d="M182 98H168V112H182V98Z" fill="white"/>
<path d="M182 112H168V126H182V112Z" fill="white"/>
<path d="M182 154H168V168H182V154Z" fill="white"/>
<path d="M182 224H168V238H182V224Z" fill="white"/>
<path d="M182 252H168V266H182V252Z" fill="white"/>
<path d="M182 294H168V308H182V294Z" fill="white"/>
<path d="M182 322H168V336H182V322Z" fill="white"/>
<path d="M182 336H168V350H182V336Z" fill="white"/>
<path d="M182 378H168V392H182V378Z" fill="white"/>
<path d="M182 392H168V406H182V392Z" fill="white"/>
<path d="M182 406H168V420H182V406Z" fill="white"/>
<path d="M182 434H168V448H182V434Z" fill="white"/>
<path d="M182 448H168V462H182V448Z" fill="white"/>
<path d="M196 42H182V56H196V42Z" fill="white"/>
<path d="M196 56H182V70H196V56Z" fill="white"/>
<path d="M196 70H182V84H196V70Z" fill="white"/>
<path d="M196 112H182V126H196V112Z" fill="white"/>
<path d="M196 126H182V140H196V126Z" fill="white"/>
<path d="M196 154H182V168H196V154Z" fill="white"/>
<path d="M196 196H182V210H196V196Z" fill="white"/>
<path d="M196 224H182V238H196V224Z" fill="white"/>
<path d="M196 238H182V252H196V238Z" fill="white"/>
<path d="M196 252H182V266H196V252Z" fill="white"/>
<path d="M196 336H182V350H196V336Z" fill="white"/>
<path d="M196 378H182V392H196V378Z" fill="white"/>
<path d="M196 420H182V434H196V420Z" fill="white"/>
<path d="M196 434H182V448H196V434Z" fill="white"/>
<path d="M210 0H196V14H210V0Z" fill="white"/>
<path d="M210 14H196V28H210V14Z" fill="white"/>
<path d="M210 42H196V56H210V42Z" fill="white"/>
<path d="M210 70H196V84H210V70Z" fill="white"/>
<path d="M210 84H196V98H210V84Z" fill="white"/>
<path d="M210 112H196V126H210V112Z" fill="white"/>
<path d="M210 168H196V182H210V168Z" fill="white"/>
<path d="M210 210H196V224H210V210Z" fill="white"/>
<path d="M210 224H196V238H210V224Z" fill="white"/>
<path d="M210 238H196V252H210V238Z" fill="white"/>
<path d="M210 252H196V266H210V252Z" fill="white"/>
<path d="M210 294H196V308H210V294Z" fill="white"/>
<path d="M210 308H196V322H210V308Z" fill="white"/>
<path d="M210 364H196V378H210V364Z" fill="white"/>
<path d="M210 378H196V392H210V378Z" fill="white"/>
<path d="M210 392H196V406H210V392Z" fill="white"/>
<path d="M210 406H196V420H210V406Z" fill="white"/>
<path d="M210 420H196V434H210V420Z" fill="white"/>
<path d="M224 0H210V14H224V0Z" fill="white"/>
<path d="M224 28H210V42H224V28Z" fill="white"/>
<path d="M224 42H210V56H224V42Z" fill="white"/>
<path d="M224 56H210V70H224V56Z" fill="white"/>
<path d="M224 70H210V84H224V70Z" fill="white"/>
<path d="M224 112H210V126H224V112Z" fill="white"/>
<path d="M224 140H210V154H224V140Z" fill="white"/>
<path d="M224 154H210V168H224V154Z" fill="white"/>
<path d="M224 182H210V196H224V182Z" fill="white"/>
<path d="M224 196H210V210H224V196Z" fill="white"/>
<path d="M224 224H210V238H224V224Z" fill="white"/>
<path d="M224 266H210V280H224V266Z" fill="white"/>
<path d="M224 280H210V294H224V280Z" fill="white"/>
<path d="M224 294H210V308H224V294Z" fill="white"/>
<path d="M224 308H210V322H224V308Z" fill="white"/>
<path d="M224 350H210V364H224V350Z" fill="white"/>
<path d="M224 364H210V378H224V364Z" fill="white"/>
<path d="M224 378H210V392H224V378Z" fill="white"/>
<path d="M224 392H210V406H224V392Z" fill="white"/>
<path d="M224 406H210V420H224V406Z" fill="white"/>
<path d="M224 420H210V434H224V420Z" fill="white"/>
<path d="M238 0H224V14H238V0Z" fill="white"/>
<path d="M238 14H224V28H238V14Z" fill="white"/>
<path d="M238 28H224V42H238V28Z" fill="white"/>
<path d="M238 42H224V56H238V42Z" fill="white"/>
<path d="M238 70H224V84H238V70Z" fill="white"/>
<path d="M238 84H224V98H238V84Z" fill="white"/>
<path d="M238 182H224V196H238V182Z" fill="white"/>
<path d="M238 196H224V210H238V196Z" fill="white"/>
<path d="M238 224H224V238H238V224Z" fill="white"/>
<path d="M238 266H224V280H238V266Z" fill="white"/>
<path d="M238 280H224V294H238V280Z" fill="white"/>
<path d="M238 294H224V308H238V294Z" fill="white"/>
<path d="M238 308H224V322H238V308Z" fill="white"/>
<path d="M238 350H224V364H238V350Z" fill="white"/>
<path d="M238 364H224V378H238V364Z" fill="white"/>
<path d="M238 392H224V406H238V392Z" fill="white"/>
<path d="M238 406H224V420H238V406Z" fill="white"/>
<path d="M238 420H224V434H238V420Z" fill="white"/>
<path d="M252 42H238V56H252V42Z" fill="white"/>
<path d="M252 70H238V84H252V70Z" fill="white"/>
<path d="M252 98H238V112H252V98Z" fill="white"/>
<path d="M252 112H238V126H252V112Z" fill="white"/>
<path d="M252 126H238V140H252V126Z" fill="white"/>
<path d="M252 168H238V182H252V168Z" fill="white"/>
<path d="M252 182H238V196H252V182Z" fill="white"/>
<path d="M252 210H238V224H252V210Z" fill="white"/>
<path d="M252 238H238V252H252V238Z" fill="white"/>
<path d="M252 280H238V294H252V280Z" fill="white"/>
<path d="M252 294H238V308H252V294Z" fill="white"/>
<path d="M252 322H238V336H252V322Z" fill="white"/>
<path d="M252 364H238V378H252V364Z" fill="white"/>
<path d="M252 392H238V406H252V392Z" fill="white"/>
<path d="M252 406H238V420H252V406Z" fill="white"/>
<path d="M252 434H238V448H252V434Z" fill="white"/>
<path d="M252 448H238V462H252V448Z" fill="white"/>
<path d="M266 0H252V14H266V0Z" fill="white"/>
<path d="M266 28H252V42H266V28Z" fill="white"/>
<path d="M266 42H252V56H266V42Z" fill="white"/>
<path d="M266 84H252V98H266V84Z" fill="white"/>
<path d="M266 98H252V112H266V98Z" fill="white"/>
<path d="M266 168H252V182H266V168Z" fill="white"/>
<path d="M266 196H252V210H266V196Z" fill="white"/>
<path d="M266 224H252V238H266V224Z" fill="white"/>
<path d="M266 238H252V252H266V238Z" fill="white"/>
<path d="M266 252H252V266H266V252Z" fill="white"/>
<path d="M266 308H252V322H266V308Z" fill="white"/>
<path d="M266 350H252V364H266V350Z" fill="white"/>
<path d="M266 364H252V378H266V364Z" fill="white"/>
<path d="M266 378H252V392H266V378Z" fill="white"/>
<path d="M266 392H252V406H266V392Z" fill="white"/>
<path d="M266 420H252V434H266V420Z" fill="white"/>
<path d="M266 434H252V448H266V434Z" fill="white"/>
<path d="M280 42H266V56H280V42Z" fill="white"/>
<path d="M280 70H266V84H280V70Z" fill="white"/>
<path d="M280 126H266V140H280V126Z" fill="white"/>
<path d="M280 140H266V154H280V140Z" fill="white"/>
<path d="M280 224H266V238H280V224Z" fill="white"/>
<path d="M280 238H266V252H280V238Z" fill="white"/>
<path d="M280 252H266V266H280V252Z" fill="white"/>
<path d="M280 266H266V280H280V266Z" fill="white"/>
<path d="M280 280H266V294H280V280Z" fill="white"/>
<path d="M280 294H266V308H280V294Z" fill="white"/>
<path d="M280 336H266V350H280V336Z" fill="white"/>
<path d="M280 392H266V406H280V392Z" fill="white"/>
<path d="M280 434H266V448H280V434Z" fill="white"/>
<path d="M294 0H280V14H294V0Z" fill="white"/>
<path d="M294 42H280V56H294V42Z" fill="white"/>
<path d="M294 70H280V84H294V70Z" fill="white"/>
<path d="M294 84H280V98H294V84Z" fill="white"/>
<path d="M294 98H280V112H294V98Z" fill="white"/>
<path d="M294 112H280V126H294V112Z" fill="white"/>
<path d="M294 126H280V140H294V126Z" fill="white"/>
<path d="M294 154H280V168H294V154Z" fill="white"/>
<path d="M294 168H280V182H294V168Z" fill="white"/>
<path d="M294 182H280V196H294V182Z" fill="white"/>
<path d="M294 210H280V224H294V210Z" fill="white"/>
<path d="M294 238H280V252H294V238Z" fill="white"/>
<path d="M294 266H280V280H294V266Z" fill="white"/>
<path d="M294 280H280V294H294V280Z" fill="white"/>
<path d="M294 378H280V392H294V378Z" fill="white"/>
<path d="M294 406H280V420H294V406Z" fill="white"/>
<path d="M294 420H280V434H294V420Z" fill="white"/>
<path d="M294 448H280V462H294V448Z" fill="white"/>
<path d="M308 0H294V14H308V0Z" fill="white"/>
<path d="M308 14H294V28H308V14Z" fill="white"/>
<path d="M308 140H294V154H308V140Z" fill="white"/>
<path d="M308 168H294V182H308V168Z" fill="white"/>
<path d="M308 210H294V224H308V210Z" fill="white"/>
<path d="M308 294H294V308H308V294Z" fill="white"/>
<path d="M308 322H294V336H308V322Z" fill="white"/>
<path d="M308 350H294V364H308V350Z" fill="white"/>
<path d="M308 364H294V378H308V364Z" fill="white"/>
<path d="M308 406H294V420H308V406Z" fill="white"/>
<path d="M308 448H294V462H308V448Z" fill="white"/>
<path d="M322 84H308V98H322V84Z" fill="white"/>
<path d="M322 98H308V112H322V98Z" fill="white"/>
<path d="M322 112H308V126H322V112Z" fill="white"/>
<path d="M322 140H308V154H322V140Z" fill="white"/>
<path d="M322 154H308V168H322V154Z" fill="white"/>
<path d="M322 224H308V238H322V224Z" fill="white"/>
<path d="M322 238H308V252H322V238Z" fill="white"/>
<path d="M322 308H308V322H322V308Z" fill="white"/>
<path d="M322 322H308V336H322V322Z" fill="white"/>
<path d="M322 336H308V350H322V336Z" fill="white"/>
<path d="M322 350H308V364H322V350Z" fill="white"/>
<path d="M322 364H308V378H322V364Z" fill="white"/>
<path d="M322 378H308V392H322V378Z" fill="white"/>
<path d="M322 392H308V406H322V392Z" fill="white"/>
<path d="M322 406H308V420H322V406Z" fill="white"/>
<path d="M322 434H308V448H322V434Z" fill="white"/>
<path d="M322 448H308V462H322V448Z" fill="white"/>
<path d="M336 14H322V28H336V14Z" fill="white"/>
<path d="M336 154H322V168H336V154Z" fill="white"/>
<path d="M336 210H322V224H336V210Z" fill="white"/>
<path d="M336 238H322V252H336V238Z" fill="white"/>
<path d="M336 252H322V266H336V252Z" fill="white"/>
<path d="M336 266H322V280H336V266Z" fill="white"/>
<path d="M336 308H322V322H336V308Z" fill="white"/>
<path d="M336 364H322V378H336V364Z" fill="white"/>
<path d="M336 378H322V392H336V378Z" fill="white"/>
<path d="M336 406H322V420H336V406Z" fill="white"/>
<path d="M336 434H322V448H336V434Z" fill="white"/>
<path d="M336 448H322V462H336V448Z" fill="white"/>
<path d="M350 0H336V14H350V0Z" fill="white"/>
<path d="M350 42H336V56H350V42Z" fill="white"/>
<path d="M350 84H336V98H350V84Z" fill="white"/>
<path d="M350 98H336V112H350V98Z" fill="white"/>
<path d="M350 112H336V126H350V112Z" fill="white"/>
<path d="M350 140H336V154H350V140Z" fill="white"/>
<path d="M350 154H336V168H350V154Z" fill="white"/>
<path d="M350 168H336V182H350V168Z" fill="white"/>
<path d="M350 182H336V196H350V182Z" fill="white"/>
<path d="M350 196H336V210H350V196Z" fill="white"/>
<path d="M350 210H336V224H350V210Z" fill="white"/>
<path d="M350 224H336V238H350V224Z" fill="white"/>
<path d="M350 238H336V252H350V238Z" fill="white"/>
<path d="M350 252H336V266H350V252Z" fill="white"/>
<path d="M350 280H336V294H350V280Z" fill="white"/>
<path d="M350 308H336V322H350V308Z" fill="white"/>
<path d="M350 336H336V350H350V336Z" fill="white"/>
<path d="M350 350H336V364H350V350Z" fill="white"/>
<path d="M350 364H336V378H350V364Z" fill="white"/>
<path d="M350 378H336V392H350V378Z" fill="white"/>
<path d="M350 392H336V406H350V392Z" fill="white"/>
<path d="M350 434H336V448H350V434Z" fill="white"/>
<path d="M364 112H350V126H364V112Z" fill="white"/>
<path d="M364 168H350V182H364V168Z" fill="white"/>
<path d="M364 182H350V196H364V182Z" fill="white"/>
<path d="M364 196H350V210H364V196Z" fill="white"/>
<path d="M364 210H350V224H364V210Z" fill="white"/>
<path d="M364 238H350V252H364V238Z" fill="white"/>
<path d="M364 252H350V266H364V252Z" fill="white"/>
<path d="M364 266H350V280H364V266Z" fill="white"/>
<path d="M364 336H350V350H364V336Z" fill="white"/>
<path d="M364 392H350V406H364V392Z" fill="white"/>
<path d="M364 406H350V420H364V406Z" fill="white"/>
<path d="M378 126H364V140H378V126Z" fill="white"/>
<path d="M378 154H364V168H378V154Z" fill="white"/>
<path d="M378 182H364V196H378V182Z" fill="white"/>
<path d="M378 196H364V210H378V196Z" fill="white"/>
<path d="M378 210H364V224H378V210Z" fill="white"/>
<path d="M378 252H364V266H378V252Z" fill="white"/>
<path d="M378 266H364V280H378V266Z" fill="white"/>
<path d="M378 280H364V294H378V280Z" fill="white"/>
<path d="M378 308H364V322H378V308Z" fill="white"/>
<path d="M378 322H364V336H378V322Z" fill="white"/>
<path d="M378 336H364V350H378V336Z" fill="white"/>
<path d="M378 364H364V378H378V364Z" fill="white"/>
<path d="M378 392H364V406H378V392Z" fill="white"/>
<path d="M392 112H378V126H392V112Z" fill="white"/>
<path d="M392 126H378V140H392V126Z" fill="white"/>
<path d="M392 140H378V154H392V140Z" fill="white"/>
<path d="M392 168H378V182H392V168Z" fill="white"/>
<path d="M392 182H378V196H392V182Z" fill="white"/>
<path d="M392 224H378V238H392V224Z" fill="white"/>
<path d="M392 252H378V266H392V252Z" fill="white"/>
<path d="M392 266H378V280H392V266Z" fill="white"/>
<path d="M392 280H378V294H392V280Z" fill="white"/>
<path d="M392 294H378V308H392V294Z" fill="white"/>
<path d="M392 308H378V322H392V308Z" fill="white"/>
<path d="M392 322H378V336H392V322Z" fill="white"/>
<path d="M392 336H378V350H392V336Z" fill="white"/>
<path d="M392 392H378V406H392V392Z" fill="white"/>
<path d="M392 406H378V420H392V406Z" fill="white"/>
<path d="M392 420H378V434H392V420Z" fill="white"/>
<path d="M392 434H378V448H392V434Z" fill="white"/>
<path d="M392 448H378V462H392V448Z" fill="white"/>
<path d="M406 126H392V140H406V126Z" fill="white"/>
<path d="M406 154H392V168H406V154Z" fill="white"/>
<path d="M406 224H392V238H406V224Z" fill="white"/>
<path d="M406 280H392V294H406V280Z" fill="white"/>
<path d="M406 322H392V336H406V322Z" fill="white"/>
<path d="M406 336H392V350H406V336Z" fill="white"/>
<path d="M406 350H392V364H406V350Z" fill="white"/>
<path d="M406 364H392V378H406V364Z" fill="white"/>
<path d="M406 378H392V392H406V378Z" fill="white"/>
<path d="M406 392H392V406H406V392Z" fill="white"/>
<path d="M406 420H392V434H406V420Z" fill="white"/>
<path d="M406 448H392V462H406V448Z" fill="white"/>
<path d="M420 112H406V126H420V112Z" fill="white"/>
<path d="M420 126H406V140H420V126Z" fill="white"/>
<path d="M420 140H406V154H420V140Z" fill="white"/>
<path d="M420 196H406V210H420V196Z" fill="white"/>
<path d="M420 210H406V224H420V210Z" fill="white"/>
<path d="M420 224H406V238H420V224Z" fill="white"/>
<path d="M420 266H406V280H420V266Z" fill="white"/>
<path d="M420 280H406V294H420V280Z" fill="white"/>
<path d="M420 322H406V336H420V322Z" fill="white"/>
<path d="M420 336H406V350H420V336Z" fill="white"/>
<path d="M420 378H406V392H420V378Z" fill="white"/>
<path d="M420 406H406V420H420V406Z" fill="white"/>
<path d="M420 434H406V448H420V434Z" fill="white"/>
<path d="M420 448H406V462H420V448Z" fill="white"/>
<path d="M434 112H420V126H434V112Z" fill="white"/>
<path d="M434 126H420V140H434V126Z" fill="white"/>
<path d="M434 182H420V196H434V182Z" fill="white"/>
<path d="M434 196H420V210H434V196Z" fill="white"/>
<path d="M434 238H420V252H434V238Z" fill="white"/>
<path d="M434 266H420V280H434V266Z" fill="white"/>
<path d="M434 294H420V308H434V294Z" fill="white"/>
<path d="M434 322H420V336H434V322Z" fill="white"/>
<path d="M434 336H420V350H434V336Z" fill="white"/>
<path d="M434 350H420V364H434V350Z" fill="white"/>
<path d="M434 364H420V378H434V364Z" fill="white"/>
<path d="M434 378H420V392H434V378Z" fill="white"/>
<path d="M434 406H420V420H434V406Z" fill="white"/>
<path d="M434 420H420V434H434V420Z" fill="white"/>
<path d="M448 112H434V126H448V112Z" fill="white"/>
<path d="M448 126H434V140H448V126Z" fill="white"/>
<path d="M448 154H434V168H448V154Z" fill="white"/>
<path d="M448 182H434V196H448V182Z" fill="white"/>
<path d="M448 196H434V210H448V196Z" fill="white"/>
<path d="M448 210H434V224H448V210Z" fill="white"/>
<path d="M448 238H434V252H448V238Z" fill="white"/>
<path d="M448 252H434V266H448V252Z" fill="white"/>
<path d="M448 266H434V280H448V266Z" fill="white"/>
<path d="M448 308H434V322H448V308Z" fill="white"/>
<path d="M448 322H434V336H448V322Z" fill="white"/>
<path d="M448 336H434V350H448V336Z" fill="white"/>
<path d="M448 350H434V364H448V350Z" fill="white"/>
<path d="M448 364H434V378H448V364Z" fill="white"/>
<path d="M448 378H434V392H448V378Z" fill="white"/>
<path d="M448 392H434V406H448V392Z" fill="white"/>
<path d="M448 448H434V462H448V448Z" fill="white"/>
<path d="M462 126H448V140H462V126Z" fill="white"/>
<path d="M462 182H448V196H462V182Z" fill="white"/>
<path d="M462 196H448V210H462V196Z" fill="white"/>
<path d="M462 294H448V308H462V294Z" fill="white"/>
<path d="M462 322H448V336H462V322Z" fill="white"/>
<path d="M462 350H448V364H462V350Z" fill="white"/>
<path d="M462 392H448V406H462V392Z" fill="white"/>
<path d="M462 406H448V420H462V406Z" fill="white"/>
<path fill-rule="evenodd" clip-rule="evenodd" d="M0 35V63C0 72.2826 3.68749 81.185 10.2513 87.7487C16.815 94.3125 25.7174 98 35 98H63C72.2826 98 81.185 94.3125 87.7487 87.7487C94.3125 81.185 98 72.2826 98 63V35C98 25.7174 94.3125 16.815 87.7487 10.2513C81.185 3.68749 72.2826 0 63 0H35C25.7174 0 16.815 3.68749 10.2513 10.2513C3.68749 16.815 0 25.7174 0 35ZM35 14H63C68.5695 14 73.911 16.2125 77.8492 20.1508C81.7875 24.089 84 29.4305 84 35V63C84 68.5695 81.7875 73.911 77.8492 77.8492C73.911 81.7875 68.5695 84 63 84H35C29.4305 84 24.089 81.7875 20.1508 77.8492C16.2125 73.911 14 68.5695 14 63V35C14 29.4305 16.2125 24.089 20.1508 20.1508C24.089 16.2125 29.4305 14 35 14Z" fill="white"/>
<path d="M49 70C60.598 70 70 60.598 70 49C70 37.402 60.598 28 49 28C37.402 28 28 37.402 28 49C28 60.598 37.402 70 49 70Z" fill="white"/>
<path fill-rule="evenodd" clip-rule="evenodd" d="M427 0L399 0C389.717 0 380.815 3.68748 374.251 10.2513C367.687 16.815 364 25.7174 364 35V63C364 72.2826 367.687 81.185 374.251 87.7487C380.815 94.3125 389.717 98 399 98H427C436.283 98 445.185 94.3125 451.749 87.7487C458.313 81.185 462 72.2826 462 63V35C462 25.7174 458.313 16.815 451.749 10.2513C445.185 3.68748 436.283 0 427 0ZM448 35V63C448 68.5695 445.788 73.911 441.849 77.8492C437.911 81.7875 432.57 84 427 84H399C393.43 84 388.089 81.7875 384.151 77.8492C380.212 73.911 378 68.5695 378 63V35C378 29.4305 380.212 24.089 384.151 20.1508C388.089 16.2125 393.43 14 399 14L427 14C432.57 14 437.911 16.2125 441.849 20.1508C445.788 24.089 448 29.4305 448 35Z" fill="white"/>
<path d="M392 49C392 60.598 401.402 70 413 70C424.598 70 434 60.598 434 49C434 37.402 424.598 28 413 28C401.402 28 392 37.402 392 49Z" fill="white"/>
<path fill-rule="evenodd" clip-rule="evenodd" d="M35 462H63C72.2826 462 81.185 458.313 87.7487 451.749C94.3125 445.185 98 436.283 98 427V399C98 389.717 94.3125 380.815 87.7487 374.251C81.185 367.687 72.2826 364 63 364H35C25.7174 364 16.815 367.687 10.2513 374.251C3.68748 380.815 0 389.717 0 399L0 427C0 436.283 3.68748 445.185 10.2513 451.749C16.815 458.313 25.7174 462 35 462ZM14 427L14 399C14 393.43 16.2125 388.089 20.1508 384.151C24.089 380.212 29.4305 378 35 378H63C68.5695 378 73.911 380.212 77.8492 384.151C81.7875 388.089 84 393.43 84 399V427C84 432.57 81.7875 437.911 77.8492 441.849C73.911 445.788 68.5695 448 63 448H35C29.4305 448 24.089 445.788 20.1508 441.849C16.2125 437.911 14 432.57 14 427Z" fill="white"/>
<path d="M70 413C70 401.402 60.598 392 49 392C37.402 392 28 401.402 28 413C28 424.598 37.402 434 49 434C60.598 434 70 424.598 70 413Z" fill="white"/>
</mask>
<g mask="url(#mask0_418_966)">
<path d="M481 -19H-19V481H481V-19Z" fill="black"/>
</g>
</svg>
