<svg width="464" height="464" viewBox="0 0 464 464" fill="none" xmlns="http://www.w3.org/2000/svg">
<mask id="mask0_418_1305" style="mask-type:luminance" maskUnits="userSpaceOnUse" x="0" y="0" width="464" height="464">
<path d="M16 128H0V144H16V128Z" fill="white"/>
<path d="M16 160H0V176H16V160Z" fill="white"/>
<path d="M16 176H0V192H16V176Z" fill="white"/>
<path d="M16 208H0V224H16V208Z" fill="white"/>
<path d="M16 224H0V240H16V224Z" fill="white"/>
<path d="M16 240H0V256H16V240Z" fill="white"/>
<path d="M16 256H0V272H16V256Z" fill="white"/>
<path d="M32 144H16V160H32V144Z" fill="white"/>
<path d="M32 176H16V192H32V176Z" fill="white"/>
<path d="M32 208H16V224H32V208Z" fill="white"/>
<path d="M32 256H16V272H32V256Z" fill="white"/>
<path d="M32 288H16V304H32V288Z" fill="white"/>
<path d="M32 320H16V336H32V320Z" fill="white"/>
<path d="M48 160H32V176H48V160Z" fill="white"/>
<path d="M48 176H32V192H48V176Z" fill="white"/>
<path d="M48 240H32V256H48V240Z" fill="white"/>
<path d="M48 256H32V272H48V256Z" fill="white"/>
<path d="M48 288H32V304H48V288Z" fill="white"/>
<path d="M64 144H48V160H64V144Z" fill="white"/>
<path d="M64 176H48V192H64V176Z" fill="white"/>
<path d="M64 192H48V208H64V192Z" fill="white"/>
<path d="M64 208H48V224H64V208Z" fill="white"/>
<path d="M64 240H48V256H64V240Z" fill="white"/>
<path d="M64 272H48V288H64V272Z" fill="white"/>
<path d="M64 288H48V304H64V288Z" fill="white"/>
<path d="M64 320H48V336H64V320Z" fill="white"/>
<path d="M80 128H64V144H80V128Z" fill="white"/>
<path d="M80 144H64V160H80V144Z" fill="white"/>
<path d="M80 160H64V176H80V160Z" fill="white"/>
<path d="M80 272H64V288H80V272Z" fill="white"/>
<path d="M80 304H64V320H80V304Z" fill="white"/>
<path d="M96 128H80V144H96V128Z" fill="white"/>
<path d="M96 160H80V176H96V160Z" fill="white"/>
<path d="M96 176H80V192H96V176Z" fill="white"/>
<path d="M96 224H80V240H96V224Z" fill="white"/>
<path d="M96 256H80V272H96V256Z" fill="white"/>
<path d="M96 272H80V288H96V272Z" fill="white"/>
<path d="M96 320H80V336H96V320Z" fill="white"/>
<path d="M112 128H96V144H112V128Z" fill="white"/>
<path d="M112 160H96V176H112V160Z" fill="white"/>
<path d="M112 192H96V208H112V192Z" fill="white"/>
<path d="M112 224H96V240H112V224Z" fill="white"/>
<path d="M112 256H96V272H112V256Z" fill="white"/>
<path d="M112 288H96V304H112V288Z" fill="white"/>
<path d="M112 320H96V336H112V320Z" fill="white"/>
<path d="M128 176H112V192H128V176Z" fill="white"/>
<path d="M128 256H112V272H128V256Z" fill="white"/>
<path d="M128 272H112V288H128V272Z" fill="white"/>
<path d="M128 288H112V304H128V288Z" fill="white"/>
<path d="M144 16H128V32H144V16Z" fill="white"/>
<path d="M144 32H128V48H144V32Z" fill="white"/>
<path d="M144 48H128V64H144V48Z" fill="white"/>
<path d="M144 64H128V80H144V64Z" fill="white"/>
<path d="M144 80H128V96H144V80Z" fill="white"/>
<path d="M144 96H128V112H144V96Z" fill="white"/>
<path d="M144 112H128V128H144V112Z" fill="white"/>
<path d="M144 224H128V240H144V224Z" fill="white"/>
<path d="M144 256H128V272H144V256Z" fill="white"/>
<path d="M144 368H128V384H144V368Z" fill="white"/>
<path d="M144 384H128V400H144V384Z" fill="white"/>
<path d="M144 448H128V464H144V448Z" fill="white"/>
<path d="M160 0H144V16H160V0Z" fill="white"/>
<path d="M160 16H144V32H160V16Z" fill="white"/>
<path d="M160 32H144V48H160V32Z" fill="white"/>
<path d="M160 48H144V64H160V48Z" fill="white"/>
<path d="M160 80H144V96H160V80Z" fill="white"/>
<path d="M160 160H144V176H160V160Z" fill="white"/>
<path d="M160 176H144V192H160V176Z" fill="white"/>
<path d="M160 192H144V208H160V192Z" fill="white"/>
<path d="M160 240H144V256H160V240Z" fill="white"/>
<path d="M160 256H144V272H160V256Z" fill="white"/>
<path d="M160 288H144V304H160V288Z" fill="white"/>
<path d="M160 320H144V336H160V320Z" fill="white"/>
<path d="M160 336H144V352H160V336Z" fill="white"/>
<path d="M160 352H144V368H160V352Z" fill="white"/>
<path d="M160 368H144V384H160V368Z" fill="white"/>
<path d="M160 384H144V400H160V384Z" fill="white"/>
<path d="M160 416H144V432H160V416Z" fill="white"/>
<path d="M160 432H144V448H160V432Z" fill="white"/>
<path d="M160 448H144V464H160V448Z" fill="white"/>
<path d="M176 0H160V16H176V0Z" fill="white"/>
<path d="M176 16H160V32H176V16Z" fill="white"/>
<path d="M176 96H160V112H176V96Z" fill="white"/>
<path d="M176 112H160V128H176V112Z" fill="white"/>
<path d="M176 128H160V144H176V128Z" fill="white"/>
<path d="M176 160H160V176H176V160Z" fill="white"/>
<path d="M176 176H160V192H176V176Z" fill="white"/>
<path d="M176 192H160V208H176V192Z" fill="white"/>
<path d="M176 208H160V224H176V208Z" fill="white"/>
<path d="M176 240H160V256H176V240Z" fill="white"/>
<path d="M176 256H160V272H176V256Z" fill="white"/>
<path d="M176 288H160V304H176V288Z" fill="white"/>
<path d="M176 304H160V320H176V304Z" fill="white"/>
<path d="M176 336H160V352H176V336Z" fill="white"/>
<path d="M176 368H160V384H176V368Z" fill="white"/>
<path d="M176 400H160V416H176V400Z" fill="white"/>
<path d="M192 0H176V16H192V0Z" fill="white"/>
<path d="M192 16H176V32H192V16Z" fill="white"/>
<path d="M192 48H176V64H192V48Z" fill="white"/>
<path d="M192 144H176V160H192V144Z" fill="white"/>
<path d="M192 192H176V208H192V192Z" fill="white"/>
<path d="M192 304H176V320H192V304Z" fill="white"/>
<path d="M192 320H176V336H192V320Z" fill="white"/>
<path d="M192 368H176V384H192V368Z" fill="white"/>
<path d="M192 400H176V416H192V400Z" fill="white"/>
<path d="M192 432H176V448H192V432Z" fill="white"/>
<path d="M208 0H192V16H208V0Z" fill="white"/>
<path d="M208 32H192V48H208V32Z" fill="white"/>
<path d="M208 64H192V80H208V64Z" fill="white"/>
<path d="M208 80H192V96H208V80Z" fill="white"/>
<path d="M208 96H192V112H208V96Z" fill="white"/>
<path d="M208 160H192V176H208V160Z" fill="white"/>
<path d="M208 176H192V192H208V176Z" fill="white"/>
<path d="M208 192H192V208H208V192Z" fill="white"/>
<path d="M208 240H192V256H208V240Z" fill="white"/>
<path d="M208 256H192V272H208V256Z" fill="white"/>
<path d="M208 272H192V288H208V272Z" fill="white"/>
<path d="M208 288H192V304H208V288Z" fill="white"/>
<path d="M208 304H192V320H208V304Z" fill="white"/>
<path d="M208 320H192V336H208V320Z" fill="white"/>
<path d="M208 416H192V432H208V416Z" fill="white"/>
<path d="M208 448H192V464H208V448Z" fill="white"/>
<path d="M224 32H208V48H224V32Z" fill="white"/>
<path d="M224 48H208V64H224V48Z" fill="white"/>
<path d="M224 112H208V128H224V112Z" fill="white"/>
<path d="M224 128H208V144H224V128Z" fill="white"/>
<path d="M224 144H208V160H224V144Z" fill="white"/>
<path d="M224 160H208V176H224V160Z" fill="white"/>
<path d="M224 192H208V208H224V192Z" fill="white"/>
<path d="M224 224H208V240H224V224Z" fill="white"/>
<path d="M224 240H208V256H224V240Z" fill="white"/>
<path d="M224 256H208V272H224V256Z" fill="white"/>
<path d="M224 304H208V320H224V304Z" fill="white"/>
<path d="M224 336H208V352H224V336Z" fill="white"/>
<path d="M224 352H208V368H224V352Z" fill="white"/>
<path d="M224 368H208V384H224V368Z" fill="white"/>
<path d="M224 384H208V400H224V384Z" fill="white"/>
<path d="M224 400H208V416H224V400Z" fill="white"/>
<path d="M224 432H208V448H224V432Z" fill="white"/>
<path d="M224 448H208V464H224V448Z" fill="white"/>
<path d="M240 0H224V16H240V0Z" fill="white"/>
<path d="M240 16H224V32H240V16Z" fill="white"/>
<path d="M240 64H224V80H240V64Z" fill="white"/>
<path d="M240 96H224V112H240V96Z" fill="white"/>
<path d="M240 128H224V144H240V128Z" fill="white"/>
<path d="M240 176H224V192H240V176Z" fill="white"/>
<path d="M240 192H224V208H240V192Z" fill="white"/>
<path d="M240 208H224V224H240V208Z" fill="white"/>
<path d="M240 224H224V240H240V224Z" fill="white"/>
<path d="M240 256H224V272H240V256Z" fill="white"/>
<path d="M240 288H224V304H240V288Z" fill="white"/>
<path d="M240 320H224V336H240V320Z" fill="white"/>
<path d="M240 352H224V368H240V352Z" fill="white"/>
<path d="M240 384H224V400H240V384Z" fill="white"/>
<path d="M240 400H224V416H240V400Z" fill="white"/>
<path d="M256 0H240V16H256V0Z" fill="white"/>
<path d="M256 80H240V96H256V80Z" fill="white"/>
<path d="M256 112H240V128H256V112Z" fill="white"/>
<path d="M256 128H240V144H256V128Z" fill="white"/>
<path d="M256 144H240V160H256V144Z" fill="white"/>
<path d="M256 176H240V192H256V176Z" fill="white"/>
<path d="M256 208H240V224H256V208Z" fill="white"/>
<path d="M256 240H240V256H256V240Z" fill="white"/>
<path d="M256 304H240V320H256V304Z" fill="white"/>
<path d="M256 368H240V384H256V368Z" fill="white"/>
<path d="M256 384H240V400H256V384Z" fill="white"/>
<path d="M256 400H240V416H256V400Z" fill="white"/>
<path d="M272 16H256V32H272V16Z" fill="white"/>
<path d="M272 48H256V64H272V48Z" fill="white"/>
<path d="M272 64H256V80H272V64Z" fill="white"/>
<path d="M272 96H256V112H272V96Z" fill="white"/>
<path d="M272 112H256V128H272V112Z" fill="white"/>
<path d="M272 176H256V192H272V176Z" fill="white"/>
<path d="M272 192H256V208H272V192Z" fill="white"/>
<path d="M272 240H256V256H272V240Z" fill="white"/>
<path d="M272 288H256V304H272V288Z" fill="white"/>
<path d="M272 320H256V336H272V320Z" fill="white"/>
<path d="M272 336H256V352H272V336Z" fill="white"/>
<path d="M272 400H256V416H272V400Z" fill="white"/>
<path d="M272 416H256V432H272V416Z" fill="white"/>
<path d="M272 432H256V448H272V432Z" fill="white"/>
<path d="M288 0H272V16H288V0Z" fill="white"/>
<path d="M288 64H272V80H288V64Z" fill="white"/>
<path d="M288 112H272V128H288V112Z" fill="white"/>
<path d="M288 128H272V144H288V128Z" fill="white"/>
<path d="M288 144H272V160H288V144Z" fill="white"/>
<path d="M288 192H272V208H288V192Z" fill="white"/>
<path d="M288 224H272V240H288V224Z" fill="white"/>
<path d="M288 240H272V256H288V240Z" fill="white"/>
<path d="M288 256H272V272H288V256Z" fill="white"/>
<path d="M288 336H272V352H288V336Z" fill="white"/>
<path d="M288 368H272V384H288V368Z" fill="white"/>
<path d="M288 384H272V400H288V384Z" fill="white"/>
<path d="M288 400H272V416H288V400Z" fill="white"/>
<path d="M288 416H272V432H288V416Z" fill="white"/>
<path d="M288 432H272V448H288V432Z" fill="white"/>
<path d="M288 448H272V464H288V448Z" fill="white"/>
<path d="M304 0H288V16H304V0Z" fill="white"/>
<path d="M304 32H288V48H304V32Z" fill="white"/>
<path d="M304 48H288V64H304V48Z" fill="white"/>
<path d="M304 96H288V112H304V96Z" fill="white"/>
<path d="M304 176H288V192H304V176Z" fill="white"/>
<path d="M304 288H288V304H304V288Z" fill="white"/>
<path d="M304 320H288V336H304V320Z" fill="white"/>
<path d="M304 352H288V368H304V352Z" fill="white"/>
<path d="M304 368H288V384H304V368Z" fill="white"/>
<path d="M320 0H304V16H320V0Z" fill="white"/>
<path d="M320 48H304V64H320V48Z" fill="white"/>
<path d="M320 80H304V96H320V80Z" fill="white"/>
<path d="M320 128H304V144H320V128Z" fill="white"/>
<path d="M320 144H304V160H320V144Z" fill="white"/>
<path d="M320 176H304V192H320V176Z" fill="white"/>
<path d="M320 192H304V208H320V192Z" fill="white"/>
<path d="M320 256H304V272H320V256Z" fill="white"/>
<path d="M320 288H304V304H320V288Z" fill="white"/>
<path d="M320 336H304V352H320V336Z" fill="white"/>
<path d="M320 384H304V400H320V384Z" fill="white"/>
<path d="M320 448H304V464H320V448Z" fill="white"/>
<path d="M336 0H320V16H336V0Z" fill="white"/>
<path d="M336 32H320V48H336V32Z" fill="white"/>
<path d="M336 96H320V112H336V96Z" fill="white"/>
<path d="M336 112H320V128H336V112Z" fill="white"/>
<path d="M336 128H320V144H336V128Z" fill="white"/>
<path d="M336 160H320V176H336V160Z" fill="white"/>
<path d="M336 192H320V208H336V192Z" fill="white"/>
<path d="M336 208H320V224H336V208Z" fill="white"/>
<path d="M336 320H320V336H336V320Z" fill="white"/>
<path d="M336 336H320V352H336V336Z" fill="white"/>
<path d="M336 352H320V368H336V352Z" fill="white"/>
<path d="M336 368H320V384H336V368Z" fill="white"/>
<path d="M336 384H320V400H336V384Z" fill="white"/>
<path d="M336 416H320V432H336V416Z" fill="white"/>
<path d="M352 128H336V144H352V128Z" fill="white"/>
<path d="M352 160H336V176H352V160Z" fill="white"/>
<path d="M352 176H336V192H352V176Z" fill="white"/>
<path d="M352 192H336V208H352V192Z" fill="white"/>
<path d="M352 224H336V240H352V224Z" fill="white"/>
<path d="M352 256H336V272H352V256Z" fill="white"/>
<path d="M352 272H336V288H352V272Z" fill="white"/>
<path d="M352 288H336V304H352V288Z" fill="white"/>
<path d="M352 304H336V320H352V304Z" fill="white"/>
<path d="M352 320H336V336H352V320Z" fill="white"/>
<path d="M352 384H336V400H352V384Z" fill="white"/>
<path d="M352 416H336V432H352V416Z" fill="white"/>
<path d="M352 432H336V448H352V432Z" fill="white"/>
<path d="M352 448H336V464H352V448Z" fill="white"/>
<path d="M368 128H352V144H368V128Z" fill="white"/>
<path d="M368 144H352V160H368V144Z" fill="white"/>
<path d="M368 176H352V192H368V176Z" fill="white"/>
<path d="M368 192H352V208H368V192Z" fill="white"/>
<path d="M368 208H352V224H368V208Z" fill="white"/>
<path d="M368 224H352V240H368V224Z" fill="white"/>
<path d="M368 240H352V256H368V240Z" fill="white"/>
<path d="M368 256H352V272H368V256Z" fill="white"/>
<path d="M368 272H352V288H368V272Z" fill="white"/>
<path d="M368 304H352V320H368V304Z" fill="white"/>
<path d="M368 320H352V336H368V320Z" fill="white"/>
<path d="M368 352H352V368H368V352Z" fill="white"/>
<path d="M368 384H352V400H368V384Z" fill="white"/>
<path d="M368 400H352V416H368V400Z" fill="white"/>
<path d="M384 128H368V144H384V128Z" fill="white"/>
<path d="M384 160H368V176H384V160Z" fill="white"/>
<path d="M384 192H368V208H384V192Z" fill="white"/>
<path d="M384 224H368V240H384V224Z" fill="white"/>
<path d="M384 256H368V272H384V256Z" fill="white"/>
<path d="M384 272H368V288H384V272Z" fill="white"/>
<path d="M384 288H368V304H384V288Z" fill="white"/>
<path d="M384 304H368V320H384V304Z" fill="white"/>
<path d="M384 320H368V336H384V320Z" fill="white"/>
<path d="M384 384H368V400H384V384Z" fill="white"/>
<path d="M384 400H368V416H384V400Z" fill="white"/>
<path d="M400 128H384V144H400V128Z" fill="white"/>
<path d="M400 160H384V176H400V160Z" fill="white"/>
<path d="M400 176H384V192H400V176Z" fill="white"/>
<path d="M400 224H384V240H400V224Z" fill="white"/>
<path d="M400 240H384V256H400V240Z" fill="white"/>
<path d="M400 256H384V272H400V256Z" fill="white"/>
<path d="M400 320H384V336H400V320Z" fill="white"/>
<path d="M400 336H384V352H400V336Z" fill="white"/>
<path d="M400 352H384V368H400V352Z" fill="white"/>
<path d="M400 368H384V384H400V368Z" fill="white"/>
<path d="M400 384H384V400H400V384Z" fill="white"/>
<path d="M400 416H384V432H400V416Z" fill="white"/>
<path d="M400 448H384V464H400V448Z" fill="white"/>
<path d="M416 128H400V144H416V128Z" fill="white"/>
<path d="M416 160H400V176H416V160Z" fill="white"/>
<path d="M416 192H400V208H416V192Z" fill="white"/>
<path d="M416 208H400V224H416V208Z" fill="white"/>
<path d="M416 240H400V256H416V240Z" fill="white"/>
<path d="M416 288H400V304H416V288Z" fill="white"/>
<path d="M416 304H400V320H416V304Z" fill="white"/>
<path d="M416 320H400V336H416V320Z" fill="white"/>
<path d="M416 368H400V384H416V368Z" fill="white"/>
<path d="M416 400H400V416H416V400Z" fill="white"/>
<path d="M416 416H400V432H416V416Z" fill="white"/>
<path d="M432 128H416V144H432V128Z" fill="white"/>
<path d="M432 144H416V160H432V144Z" fill="white"/>
<path d="M432 160H416V176H432V160Z" fill="white"/>
<path d="M432 224H416V240H432V224Z" fill="white"/>
<path d="M432 240H416V256H432V240Z" fill="white"/>
<path d="M432 256H416V272H432V256Z" fill="white"/>
<path d="M432 288H416V304H432V288Z" fill="white"/>
<path d="M432 320H416V336H432V320Z" fill="white"/>
<path d="M432 336H416V352H432V336Z" fill="white"/>
<path d="M432 352H416V368H432V352Z" fill="white"/>
<path d="M432 368H416V384H432V368Z" fill="white"/>
<path d="M432 384H416V400H432V384Z" fill="white"/>
<path d="M432 416H416V432H432V416Z" fill="white"/>
<path d="M432 432H416V448H432V432Z" fill="white"/>
<path d="M448 128H432V144H448V128Z" fill="white"/>
<path d="M448 144H432V160H448V144Z" fill="white"/>
<path d="M448 192H432V208H448V192Z" fill="white"/>
<path d="M448 240H432V256H448V240Z" fill="white"/>
<path d="M448 288H432V304H448V288Z" fill="white"/>
<path d="M448 352H432V368H448V352Z" fill="white"/>
<path d="M448 368H432V384H448V368Z" fill="white"/>
<path d="M448 384H432V400H448V384Z" fill="white"/>
<path d="M448 400H432V416H448V400Z" fill="white"/>
<path d="M448 432H432V448H448V432Z" fill="white"/>
<path d="M464 208H448V224H464V208Z" fill="white"/>
<path d="M464 240H448V256H464V240Z" fill="white"/>
<path d="M464 272H448V288H464V272Z" fill="white"/>
<path d="M464 304H448V320H464V304Z" fill="white"/>
<path d="M464 320H448V336H464V320Z" fill="white"/>
<path d="M464 336H448V352H464V336Z" fill="white"/>
<path d="M464 352H448V368H464V352Z" fill="white"/>
<path d="M464 384H448V400H464V384Z" fill="white"/>
<path d="M464 416H448V432H464V416Z" fill="white"/>
<path fill-rule="evenodd" clip-rule="evenodd" d="M0 40V72C0 82.6087 4.21427 92.7828 11.7157 100.284C15.4301 103.999 19.8396 106.945 24.6927 108.955C29.5457 110.965 34.7471 112 40 112H72C82.6087 112 92.7828 107.786 100.284 100.284C107.786 92.7828 112 82.6087 112 72V40C112 34.7471 110.965 29.5457 108.955 24.6927C106.945 19.8396 103.999 15.4301 100.284 11.7157C96.5699 8.00139 92.1604 5.05501 87.3073 3.04482C82.4543 1.03463 77.2529 0 72 0H40C34.7471 0 29.5457 1.03463 24.6927 3.04482C19.8396 5.05501 15.4301 8.00139 11.7157 11.7157C4.21427 19.2172 0 29.3913 0 40ZM40 16H72C78.3652 16 84.4697 18.5286 88.9706 23.0294C93.4714 27.5303 96 33.6348 96 40V72C96 78.3652 93.4714 84.4697 88.9706 88.9706C84.4697 93.4714 78.3652 96 72 96H40C33.6348 96 27.5303 93.4714 23.0294 88.9706C18.5286 84.4697 16 78.3652 16 72V40C16 33.6348 18.5286 27.5303 23.0294 23.0294C27.5303 18.5286 33.6348 16 40 16Z" fill="white"/>
<path d="M56 80C69.2548 80 80 69.2548 80 56C80 42.7452 69.2548 32 56 32C42.7452 32 32 42.7452 32 56C32 69.2548 42.7452 80 56 80Z" fill="white"/>
<path fill-rule="evenodd" clip-rule="evenodd" d="M424 0L392 0C381.391 0 371.217 4.21427 363.716 11.7157C356.214 19.2172 352 29.3913 352 40V72C352 82.6087 356.214 92.7828 363.716 100.284C371.217 107.786 381.391 112 392 112H424C429.253 112 434.454 110.965 439.307 108.955C444.16 106.945 448.57 103.999 452.284 100.284C455.999 96.5699 458.945 92.1604 460.955 87.3073C462.965 82.4543 464 77.2529 464 72V40C464 29.3913 459.786 19.2172 452.284 11.7157C444.783 4.21427 434.609 0 424 0ZM448 40V72C448 78.3652 445.471 84.4697 440.971 88.9706C436.47 93.4714 430.365 96 424 96H392C385.635 96 379.53 93.4714 375.029 88.9706C370.529 84.4697 368 78.3652 368 72V40C368 33.6348 370.529 27.5303 375.029 23.0294C379.53 18.5286 385.635 16 392 16H424C430.365 16 436.47 18.5286 440.971 23.0294C445.471 27.5303 448 33.6348 448 40Z" fill="white"/>
<path d="M384 56C384 69.2548 394.745 80 408 80C421.255 80 432 69.2548 432 56C432 42.7452 421.255 32 408 32C394.745 32 384 42.7452 384 56Z" fill="white"/>
<path fill-rule="evenodd" clip-rule="evenodd" d="M40 464H72C82.6087 464 92.7828 459.786 100.284 452.284C103.999 448.57 106.945 444.16 108.955 439.307C110.965 434.454 112 429.253 112 424V392C112 381.391 107.786 371.217 100.284 363.716C92.7828 356.214 82.6087 352 72 352H40C29.3913 352 19.2172 356.214 11.7157 363.716C4.21427 371.217 0 381.391 0 392L0 424C0 429.253 1.03464 434.454 3.04483 439.307C5.05502 444.16 8.00139 448.57 11.7157 452.284C19.2172 459.786 29.3913 464 40 464ZM16 424V392C16 385.635 18.5286 379.53 23.0294 375.029C27.5303 370.529 33.6348 368 40 368H72C78.3652 368 84.4697 370.529 88.9706 375.029C93.4714 379.53 96 385.635 96 392V424C96 430.365 93.4714 436.47 88.9706 440.971C84.4697 445.471 78.3652 448 72 448H40C33.6348 448 27.5303 445.471 23.0294 440.971C18.5286 436.47 16 430.365 16 424Z" fill="white"/>
<path d="M80 408C80 394.745 69.2548 384 56 384C42.7452 384 32 394.745 32 408C32 421.255 42.7452 432 56 432C69.2548 432 80 421.255 80 408Z" fill="white"/>
</mask>
<g mask="url(#mask0_418_1305)">
<path d="M482 -18H-18V482H482V-18Z" fill="black"/>
</g>
</svg>
