<svg width="40" height="40" viewBox="0 0 40 40" fill="none" xmlns="http://www.w3.org/2000/svg">
<path d="M7.7 30.2C9.4 28.9 11.3 27.875 13.4 27.125C15.5 26.375 17.7 26 20 26C22.3 26 24.5 26.375 26.6 27.125C28.7 27.875 30.6 28.9 32.3 30.2C33.4667 28.8333 34.375 27.2833 35.025 25.55C35.675 23.8167 36 21.9667 36 20C36 15.5667 34.4417 11.7917 31.325 8.675C28.2083 5.55833 24.4333 4 20 4C15.5667 4 11.7917 5.55833 8.675 8.675C5.55833 11.7917 4 15.5667 4 20C4 21.9667 4.325 23.8167 4.975 25.55C5.625 27.2833 6.53333 28.8333 7.7 30.2ZM20 22C18.0333 22 16.375 21.325 15.025 19.975C13.675 18.625 13 16.9667 13 15C13 13.0333 13.675 11.375 15.025 10.025C16.375 8.675 18.0333 8 20 8C21.9667 8 23.625 8.675 24.975 10.025C26.325 11.375 27 13.0333 27 15C27 16.9667 26.325 18.625 24.975 19.975C23.625 21.325 21.9667 22 20 22ZM20 40C17.2333 40 14.6333 39.475 12.2 38.425C9.76667 37.375 7.65 35.95 5.85 34.15C4.05 32.35 2.625 30.2333 1.575 27.8C0.525 25.3667 0 22.7667 0 20C0 17.2333 0.525 14.6333 1.575 12.2C2.625 9.76667 4.05 7.65 5.85 5.85C7.65 4.05 9.76667 2.625 12.2 1.575C14.6333 0.525 17.2333 0 20 0C22.7667 0 25.3667 0.525 27.8 1.575C30.2333 2.625 32.35 4.05 34.15 5.85C35.95 7.65 37.375 9.76667 38.425 12.2C39.475 14.6333 40 17.2333 40 20C40 22.7667 39.475 25.3667 38.425 27.8C37.375 30.2333 35.95 32.35 34.15 34.15C32.35 35.95 30.2333 37.375 27.8 38.425C25.3667 39.475 22.7667 40 20 40Z" fill="#C9B6A4"/>
</svg>
