<svg width="480" height="480" viewBox="0 0 480 480" fill="none" xmlns="http://www.w3.org/2000/svg">
<path d="M92.4 362.4C112.8 346.8 135.6 334.5 160.8 325.5C186 316.5 212.4 312 240 312C267.6 312 294 316.5 319.2 325.5C344.4 334.5 367.2 346.8 387.6 362.4C401.6 346 412.5 327.4 420.3 306.6C428.1 285.8 432 263.6 432 240C432 186.8 413.3 141.5 375.9 104.1C338.5 66.7 293.2 48 240 48C186.8 48 141.5 66.7 104.1 104.1C66.7 141.5 48 186.8 48 240C48 263.6 51.9 285.8 59.7 306.6C67.5 327.4 78.4 346 92.4 362.4ZM240 264C216.4 264 196.5 255.9 180.3 239.7C164.1 223.5 156 203.6 156 180C156 156.4 164.1 136.5 180.3 120.3C196.5 104.1 216.4 96 240 96C263.6 96 283.5 104.1 299.7 120.3C315.9 136.5 324 156.4 324 180C324 203.6 315.9 223.5 299.7 239.7C283.5 255.9 263.6 264 240 264ZM240 480C206.8 480 175.6 473.7 146.4 461.1C117.2 448.5 91.8 431.4 70.2 409.8C48.6 388.2 31.5 362.8 18.9 333.6C6.3 304.4 0 273.2 0 240C0 206.8 6.3 175.6 18.9 146.4C31.5 117.2 48.6 91.8 70.2 70.2C91.8 48.6 117.2 31.5 146.4 18.9C175.6 6.3 206.8 0 240 0C273.2 0 304.4 6.3 333.6 18.9C362.8 31.5 388.2 48.6 409.8 70.2C431.4 91.8 448.5 117.2 461.1 146.4C473.7 175.6 480 206.8 480 240C480 273.2 473.7 304.4 461.1 333.6C448.5 362.8 431.4 388.2 409.8 409.8C388.2 431.4 362.8 448.5 333.6 461.1C304.4 473.7 273.2 480 240 480Z" fill="#C9B6A4"/>
</svg>
