<svg width="464" height="464" viewBox="0 0 464 464" fill="none" xmlns="http://www.w3.org/2000/svg">
<mask id="mask0_418_511" style="mask-type:luminance" maskUnits="userSpaceOnUse" x="0" y="0" width="464" height="464">
<path d="M16 144H0V160H16V144Z" fill="white"/>
<path d="M16 176H0V192H16V176Z" fill="white"/>
<path d="M16 192H0V208H16V192Z" fill="white"/>
<path d="M16 208H0V224H16V208Z" fill="white"/>
<path d="M16 224H0V240H16V224Z" fill="white"/>
<path d="M16 240H0V256H16V240Z" fill="white"/>
<path d="M16 272H0V288H16V272Z" fill="white"/>
<path d="M16 288H0V304H16V288Z" fill="white"/>
<path d="M16 304H0V320H16V304Z" fill="white"/>
<path d="M32 144H16V160H32V144Z" fill="white"/>
<path d="M32 240H16V256H32V240Z" fill="white"/>
<path d="M32 256H16V272H32V256Z" fill="white"/>
<path d="M32 288H16V304H32V288Z" fill="white"/>
<path d="M32 320H16V336H32V320Z" fill="white"/>
<path d="M48 128H32V144H48V128Z" fill="white"/>
<path d="M48 240H32V256H48V240Z" fill="white"/>
<path d="M48 256H32V272H48V256Z" fill="white"/>
<path d="M48 272H32V288H48V272Z" fill="white"/>
<path d="M48 288H32V304H48V288Z" fill="white"/>
<path d="M48 304H32V320H48V304Z" fill="white"/>
<path d="M48 320H32V336H48V320Z" fill="white"/>
<path d="M64 144H48V160H64V144Z" fill="white"/>
<path d="M64 160H48V176H64V160Z" fill="white"/>
<path d="M64 192H48V208H64V192Z" fill="white"/>
<path d="M64 208H48V224H64V208Z" fill="white"/>
<path d="M64 224H48V240H64V224Z" fill="white"/>
<path d="M64 240H48V256H64V240Z" fill="white"/>
<path d="M64 256H48V272H64V256Z" fill="white"/>
<path d="M64 288H48V304H64V288Z" fill="white"/>
<path d="M64 304H48V320H64V304Z" fill="white"/>
<path d="M64 320H48V336H64V320Z" fill="white"/>
<path d="M80 128H64V144H80V128Z" fill="white"/>
<path d="M80 144H64V160H80V144Z" fill="white"/>
<path d="M80 160H64V176H80V160Z" fill="white"/>
<path d="M80 176H64V192H80V176Z" fill="white"/>
<path d="M80 192H64V208H80V192Z" fill="white"/>
<path d="M80 208H64V224H80V208Z" fill="white"/>
<path d="M80 224H64V240H80V224Z" fill="white"/>
<path d="M80 256H64V272H80V256Z" fill="white"/>
<path d="M80 288H64V304H80V288Z" fill="white"/>
<path d="M96 128H80V144H96V128Z" fill="white"/>
<path d="M96 176H80V192H96V176Z" fill="white"/>
<path d="M96 224H80V240H96V224Z" fill="white"/>
<path d="M96 288H80V304H96V288Z" fill="white"/>
<path d="M96 304H80V320H96V304Z" fill="white"/>
<path d="M112 128H96V144H112V128Z" fill="white"/>
<path d="M112 160H96V176H112V160Z" fill="white"/>
<path d="M112 192H96V208H112V192Z" fill="white"/>
<path d="M112 224H96V240H112V224Z" fill="white"/>
<path d="M112 256H96V272H112V256Z" fill="white"/>
<path d="M112 288H96V304H112V288Z" fill="white"/>
<path d="M112 320H96V336H112V320Z" fill="white"/>
<path d="M128 144H112V160H128V144Z" fill="white"/>
<path d="M128 176H112V192H128V176Z" fill="white"/>
<path d="M128 208H112V224H128V208Z" fill="white"/>
<path d="M128 224H112V240H128V224Z" fill="white"/>
<path d="M128 256H112V272H128V256Z" fill="white"/>
<path d="M128 272H112V288H128V272Z" fill="white"/>
<path d="M128 288H112V304H128V288Z" fill="white"/>
<path d="M128 320H112V336H128V320Z" fill="white"/>
<path d="M144 16H128V32H144V16Z" fill="white"/>
<path d="M144 64H128V80H144V64Z" fill="white"/>
<path d="M144 96H128V112H144V96Z" fill="white"/>
<path d="M144 128H128V144H144V128Z" fill="white"/>
<path d="M144 240H128V256H144V240Z" fill="white"/>
<path d="M144 288H128V304H144V288Z" fill="white"/>
<path d="M144 304H128V320H144V304Z" fill="white"/>
<path d="M144 336H128V352H144V336Z" fill="white"/>
<path d="M144 368H128V384H144V368Z" fill="white"/>
<path d="M144 384H128V400H144V384Z" fill="white"/>
<path d="M144 416H128V432H144V416Z" fill="white"/>
<path d="M160 32H144V48H160V32Z" fill="white"/>
<path d="M160 48H144V64H160V48Z" fill="white"/>
<path d="M160 64H144V80H160V64Z" fill="white"/>
<path d="M160 80H144V96H160V80Z" fill="white"/>
<path d="M160 112H144V128H160V112Z" fill="white"/>
<path d="M160 144H144V160H160V144Z" fill="white"/>
<path d="M160 160H144V176H160V160Z" fill="white"/>
<path d="M160 192H144V208H160V192Z" fill="white"/>
<path d="M160 208H144V224H160V208Z" fill="white"/>
<path d="M160 224H144V240H160V224Z" fill="white"/>
<path d="M160 240H144V256H160V240Z" fill="white"/>
<path d="M160 304H144V320H160V304Z" fill="white"/>
<path d="M160 320H144V336H160V320Z" fill="white"/>
<path d="M160 384H144V400H160V384Z" fill="white"/>
<path d="M160 432H144V448H160V432Z" fill="white"/>
<path d="M160 448H144V464H160V448Z" fill="white"/>
<path d="M176 0H160V16H176V0Z" fill="white"/>
<path d="M176 64H160V80H176V64Z" fill="white"/>
<path d="M176 96H160V112H176V96Z" fill="white"/>
<path d="M176 112H160V128H176V112Z" fill="white"/>
<path d="M176 144H160V160H176V144Z" fill="white"/>
<path d="M176 160H160V176H176V160Z" fill="white"/>
<path d="M176 256H160V272H176V256Z" fill="white"/>
<path d="M176 272H160V288H176V272Z" fill="white"/>
<path d="M176 320H160V336H176V320Z" fill="white"/>
<path d="M176 336H160V352H176V336Z" fill="white"/>
<path d="M176 384H160V400H176V384Z" fill="white"/>
<path d="M176 416H160V432H176V416Z" fill="white"/>
<path d="M176 448H160V464H176V448Z" fill="white"/>
<path d="M192 0H176V16H192V0Z" fill="white"/>
<path d="M192 16H176V32H192V16Z" fill="white"/>
<path d="M192 112H176V128H192V112Z" fill="white"/>
<path d="M192 128H176V144H192V128Z" fill="white"/>
<path d="M192 176H176V192H192V176Z" fill="white"/>
<path d="M192 224H176V240H192V224Z" fill="white"/>
<path d="M192 272H176V288H192V272Z" fill="white"/>
<path d="M192 288H176V304H192V288Z" fill="white"/>
<path d="M192 336H176V352H192V336Z" fill="white"/>
<path d="M192 384H176V400H192V384Z" fill="white"/>
<path d="M192 400H176V416H192V400Z" fill="white"/>
<path d="M192 432H176V448H192V432Z" fill="white"/>
<path d="M192 448H176V464H192V448Z" fill="white"/>
<path d="M208 16H192V32H208V16Z" fill="white"/>
<path d="M208 32H192V48H208V32Z" fill="white"/>
<path d="M208 80H192V96H208V80Z" fill="white"/>
<path d="M208 96H192V112H208V96Z" fill="white"/>
<path d="M208 112H192V128H208V112Z" fill="white"/>
<path d="M208 128H192V144H208V128Z" fill="white"/>
<path d="M208 144H192V160H208V144Z" fill="white"/>
<path d="M208 208H192V224H208V208Z" fill="white"/>
<path d="M208 224H192V240H208V224Z" fill="white"/>
<path d="M208 256H192V272H208V256Z" fill="white"/>
<path d="M208 272H192V288H208V272Z" fill="white"/>
<path d="M208 304H192V320H208V304Z" fill="white"/>
<path d="M208 320H192V336H208V320Z" fill="white"/>
<path d="M208 368H192V384H208V368Z" fill="white"/>
<path d="M208 400H192V416H208V400Z" fill="white"/>
<path d="M208 448H192V464H208V448Z" fill="white"/>
<path d="M224 48H208V64H224V48Z" fill="white"/>
<path d="M224 64H208V80H224V64Z" fill="white"/>
<path d="M224 112H208V128H224V112Z" fill="white"/>
<path d="M224 128H208V144H224V128Z" fill="white"/>
<path d="M224 144H208V160H224V144Z" fill="white"/>
<path d="M224 176H208V192H224V176Z" fill="white"/>
<path d="M224 208H208V224H224V208Z" fill="white"/>
<path d="M224 240H208V256H224V240Z" fill="white"/>
<path d="M224 256H208V272H224V256Z" fill="white"/>
<path d="M224 272H208V288H224V272Z" fill="white"/>
<path d="M224 352H208V368H224V352Z" fill="white"/>
<path d="M224 384H208V400H224V384Z" fill="white"/>
<path d="M224 416H208V432H224V416Z" fill="white"/>
<path d="M224 448H208V464H224V448Z" fill="white"/>
<path d="M240 0H224V16H240V0Z" fill="white"/>
<path d="M240 16H224V32H240V16Z" fill="white"/>
<path d="M240 32H224V48H240V32Z" fill="white"/>
<path d="M240 48H224V64H240V48Z" fill="white"/>
<path d="M240 80H224V96H240V80Z" fill="white"/>
<path d="M240 96H224V112H240V96Z" fill="white"/>
<path d="M240 128H224V144H240V128Z" fill="white"/>
<path d="M240 160H224V176H240V160Z" fill="white"/>
<path d="M240 192H224V208H240V192Z" fill="white"/>
<path d="M240 288H224V304H240V288Z" fill="white"/>
<path d="M240 384H224V400H240V384Z" fill="white"/>
<path d="M240 432H224V448H240V432Z" fill="white"/>
<path d="M240 448H224V464H240V448Z" fill="white"/>
<path d="M256 32H240V48H256V32Z" fill="white"/>
<path d="M256 48H240V64H256V48Z" fill="white"/>
<path d="M256 64H240V80H256V64Z" fill="white"/>
<path d="M256 80H240V96H256V80Z" fill="white"/>
<path d="M256 112H240V128H256V112Z" fill="white"/>
<path d="M256 176H240V192H256V176Z" fill="white"/>
<path d="M256 256H240V272H256V256Z" fill="white"/>
<path d="M256 320H240V336H256V320Z" fill="white"/>
<path d="M256 336H240V352H256V336Z" fill="white"/>
<path d="M256 368H240V384H256V368Z" fill="white"/>
<path d="M256 400H240V416H256V400Z" fill="white"/>
<path d="M272 16H256V32H272V16Z" fill="white"/>
<path d="M272 48H256V64H272V48Z" fill="white"/>
<path d="M272 96H256V112H272V96Z" fill="white"/>
<path d="M272 144H256V160H272V144Z" fill="white"/>
<path d="M272 208H256V224H272V208Z" fill="white"/>
<path d="M272 256H256V272H272V256Z" fill="white"/>
<path d="M272 320H256V336H272V320Z" fill="white"/>
<path d="M272 336H256V352H272V336Z" fill="white"/>
<path d="M272 352H256V368H272V352Z" fill="white"/>
<path d="M288 0H272V16H288V0Z" fill="white"/>
<path d="M288 80H272V96H288V80Z" fill="white"/>
<path d="M288 112H272V128H288V112Z" fill="white"/>
<path d="M288 128H272V144H288V128Z" fill="white"/>
<path d="M288 160H272V176H288V160Z" fill="white"/>
<path d="M288 288H272V304H288V288Z" fill="white"/>
<path d="M288 304H272V320H288V304Z" fill="white"/>
<path d="M288 384H272V400H288V384Z" fill="white"/>
<path d="M288 400H272V416H288V400Z" fill="white"/>
<path d="M288 416H272V432H288V416Z" fill="white"/>
<path d="M288 448H272V464H288V448Z" fill="white"/>
<path d="M304 32H288V48H304V32Z" fill="white"/>
<path d="M304 48H288V64H304V48Z" fill="white"/>
<path d="M304 96H288V112H304V96Z" fill="white"/>
<path d="M304 112H288V128H304V112Z" fill="white"/>
<path d="M304 128H288V144H304V128Z" fill="white"/>
<path d="M304 144H288V160H304V144Z" fill="white"/>
<path d="M304 160H288V176H304V160Z" fill="white"/>
<path d="M304 176H288V192H304V176Z" fill="white"/>
<path d="M304 192H288V208H304V192Z" fill="white"/>
<path d="M304 224H288V240H304V224Z" fill="white"/>
<path d="M304 240H288V256H304V240Z" fill="white"/>
<path d="M304 272H288V288H304V272Z" fill="white"/>
<path d="M304 288H288V304H304V288Z" fill="white"/>
<path d="M304 304H288V320H304V304Z" fill="white"/>
<path d="M304 400H288V416H304V400Z" fill="white"/>
<path d="M304 416H288V432H304V416Z" fill="white"/>
<path d="M304 448H288V464H304V448Z" fill="white"/>
<path d="M320 32H304V48H320V32Z" fill="white"/>
<path d="M320 48H304V64H320V48Z" fill="white"/>
<path d="M320 80H304V96H320V80Z" fill="white"/>
<path d="M320 112H304V128H320V112Z" fill="white"/>
<path d="M320 128H304V144H320V128Z" fill="white"/>
<path d="M320 160H304V176H320V160Z" fill="white"/>
<path d="M320 176H304V192H320V176Z" fill="white"/>
<path d="M320 192H304V208H320V192Z" fill="white"/>
<path d="M320 208H304V224H320V208Z" fill="white"/>
<path d="M320 224H304V240H320V224Z" fill="white"/>
<path d="M320 240H304V256H320V240Z" fill="white"/>
<path d="M320 256H304V272H320V256Z" fill="white"/>
<path d="M320 272H304V288H320V272Z" fill="white"/>
<path d="M320 304H304V320H320V304Z" fill="white"/>
<path d="M320 320H304V336H320V320Z" fill="white"/>
<path d="M320 384H304V400H320V384Z" fill="white"/>
<path d="M320 400H304V416H320V400Z" fill="white"/>
<path d="M320 432H304V448H320V432Z" fill="white"/>
<path d="M336 0H320V16H336V0Z" fill="white"/>
<path d="M336 16H320V32H336V16Z" fill="white"/>
<path d="M336 64H320V80H336V64Z" fill="white"/>
<path d="M336 80H320V96H336V80Z" fill="white"/>
<path d="M336 96H320V112H336V96Z" fill="white"/>
<path d="M336 144H320V160H336V144Z" fill="white"/>
<path d="M336 176H320V192H336V176Z" fill="white"/>
<path d="M336 208H320V224H336V208Z" fill="white"/>
<path d="M336 224H320V240H336V224Z" fill="white"/>
<path d="M336 272H320V288H336V272Z" fill="white"/>
<path d="M336 320H320V336H336V320Z" fill="white"/>
<path d="M336 336H320V352H336V336Z" fill="white"/>
<path d="M336 352H320V368H336V352Z" fill="white"/>
<path d="M336 368H320V384H336V368Z" fill="white"/>
<path d="M336 384H320V400H336V384Z" fill="white"/>
<path d="M336 400H320V416H336V400Z" fill="white"/>
<path d="M336 432H320V448H336V432Z" fill="white"/>
<path d="M352 128H336V144H352V128Z" fill="white"/>
<path d="M352 160H336V176H352V160Z" fill="white"/>
<path d="M352 208H336V224H352V208Z" fill="white"/>
<path d="M352 240H336V256H352V240Z" fill="white"/>
<path d="M352 256H336V272H352V256Z" fill="white"/>
<path d="M352 288H336V304H352V288Z" fill="white"/>
<path d="M352 304H336V320H352V304Z" fill="white"/>
<path d="M352 320H336V336H352V320Z" fill="white"/>
<path d="M352 384H336V400H352V384Z" fill="white"/>
<path d="M352 416H336V432H352V416Z" fill="white"/>
<path d="M352 432H336V448H352V432Z" fill="white"/>
<path d="M352 448H336V464H352V448Z" fill="white"/>
<path d="M368 144H352V160H368V144Z" fill="white"/>
<path d="M368 176H352V192H368V176Z" fill="white"/>
<path d="M368 192H352V208H368V192Z" fill="white"/>
<path d="M368 240H352V256H368V240Z" fill="white"/>
<path d="M368 256H352V272H368V256Z" fill="white"/>
<path d="M368 272H352V288H368V272Z" fill="white"/>
<path d="M368 304H352V320H368V304Z" fill="white"/>
<path d="M368 320H352V336H368V320Z" fill="white"/>
<path d="M368 352H352V368H368V352Z" fill="white"/>
<path d="M368 384H352V400H368V384Z" fill="white"/>
<path d="M368 448H352V464H368V448Z" fill="white"/>
<path d="M384 144H368V160H384V144Z" fill="white"/>
<path d="M384 224H368V240H384V224Z" fill="white"/>
<path d="M384 240H368V256H384V240Z" fill="white"/>
<path d="M384 272H368V288H384V272Z" fill="white"/>
<path d="M384 288H368V304H384V288Z" fill="white"/>
<path d="M384 304H368V320H384V304Z" fill="white"/>
<path d="M384 320H368V336H384V320Z" fill="white"/>
<path d="M384 384H368V400H384V384Z" fill="white"/>
<path d="M384 400H368V416H384V400Z" fill="white"/>
<path d="M400 128H384V144H400V128Z" fill="white"/>
<path d="M400 160H384V176H400V160Z" fill="white"/>
<path d="M400 176H384V192H400V176Z" fill="white"/>
<path d="M400 208H384V224H400V208Z" fill="white"/>
<path d="M400 240H384V256H400V240Z" fill="white"/>
<path d="M400 288H384V304H400V288Z" fill="white"/>
<path d="M400 304H384V320H400V304Z" fill="white"/>
<path d="M400 320H384V336H400V320Z" fill="white"/>
<path d="M400 336H384V352H400V336Z" fill="white"/>
<path d="M400 352H384V368H400V352Z" fill="white"/>
<path d="M400 368H384V384H400V368Z" fill="white"/>
<path d="M400 384H384V400H400V384Z" fill="white"/>
<path d="M400 448H384V464H400V448Z" fill="white"/>
<path d="M416 160H400V176H416V160Z" fill="white"/>
<path d="M416 176H400V192H416V176Z" fill="white"/>
<path d="M416 192H400V208H416V192Z" fill="white"/>
<path d="M416 208H400V224H416V208Z" fill="white"/>
<path d="M416 256H400V272H416V256Z" fill="white"/>
<path d="M416 368H400V384H416V368Z" fill="white"/>
<path d="M416 432H400V448H416V432Z" fill="white"/>
<path d="M432 144H416V160H432V144Z" fill="white"/>
<path d="M432 192H416V208H432V192Z" fill="white"/>
<path d="M432 224H416V240H432V224Z" fill="white"/>
<path d="M432 256H416V272H432V256Z" fill="white"/>
<path d="M432 272H416V288H432V272Z" fill="white"/>
<path d="M432 304H416V320H432V304Z" fill="white"/>
<path d="M432 320H416V336H432V320Z" fill="white"/>
<path d="M432 336H416V352H432V336Z" fill="white"/>
<path d="M432 400H416V416H432V400Z" fill="white"/>
<path d="M432 416H416V432H432V416Z" fill="white"/>
<path d="M432 432H416V448H432V432Z" fill="white"/>
<path d="M432 448H416V464H432V448Z" fill="white"/>
<path d="M448 128H432V144H448V128Z" fill="white"/>
<path d="M448 176H432V192H448V176Z" fill="white"/>
<path d="M448 224H432V240H448V224Z" fill="white"/>
<path d="M448 272H432V288H448V272Z" fill="white"/>
<path d="M448 288H432V304H448V288Z" fill="white"/>
<path d="M448 304H432V320H448V304Z" fill="white"/>
<path d="M448 336H432V352H448V336Z" fill="white"/>
<path d="M448 352H432V368H448V352Z" fill="white"/>
<path d="M448 368H432V384H448V368Z" fill="white"/>
<path d="M448 400H432V416H448V400Z" fill="white"/>
<path d="M448 432H432V448H448V432Z" fill="white"/>
<path d="M448 448H432V464H448V448Z" fill="white"/>
<path d="M464 160H448V176H464V160Z" fill="white"/>
<path d="M464 192H448V208H464V192Z" fill="white"/>
<path d="M464 224H448V240H464V224Z" fill="white"/>
<path d="M464 240H448V256H464V240Z" fill="white"/>
<path d="M464 272H448V288H464V272Z" fill="white"/>
<path d="M464 304H448V320H464V304Z" fill="white"/>
<path d="M464 320H448V336H464V320Z" fill="white"/>
<path d="M464 336H448V352H464V336Z" fill="white"/>
<path d="M464 384H448V400H464V384Z" fill="white"/>
<path d="M464 400H448V416H464V400Z" fill="white"/>
<path d="M464 432H448V448H464V432Z" fill="white"/>
<path fill-rule="evenodd" clip-rule="evenodd" d="M0 40V72C0 82.6087 4.21427 92.7828 11.7157 100.284C15.4301 103.999 19.8396 106.945 24.6927 108.955C29.5457 110.965 34.7471 112 40 112H72C82.6087 112 92.7828 107.786 100.284 100.284C107.786 92.7828 112 82.6087 112 72V40C112 34.7471 110.965 29.5457 108.955 24.6927C106.945 19.8396 103.999 15.4301 100.284 11.7157C96.5699 8.00139 92.1604 5.05501 87.3073 3.04482C82.4543 1.03463 77.2529 0 72 0H40C34.7471 0 29.5457 1.03463 24.6927 3.04482C19.8396 5.05501 15.4301 8.00139 11.7157 11.7157C4.21427 19.2172 0 29.3913 0 40ZM40 16H72C78.3652 16 84.4697 18.5286 88.9706 23.0294C93.4714 27.5303 96 33.6348 96 40V72C96 78.3652 93.4714 84.4697 88.9706 88.9706C84.4697 93.4714 78.3652 96 72 96H40C33.6348 96 27.5303 93.4714 23.0294 88.9706C18.5286 84.4697 16 78.3652 16 72V40C16 33.6348 18.5286 27.5303 23.0294 23.0294C27.5303 18.5286 33.6348 16 40 16Z" fill="white"/>
<path d="M56 80C69.2548 80 80 69.2548 80 56C80 42.7452 69.2548 32 56 32C42.7452 32 32 42.7452 32 56C32 69.2548 42.7452 80 56 80Z" fill="white"/>
<path fill-rule="evenodd" clip-rule="evenodd" d="M424 0L392 0C381.391 0 371.217 4.21427 363.716 11.7157C356.214 19.2172 352 29.3913 352 40V72C352 82.6087 356.214 92.7828 363.716 100.284C371.217 107.786 381.391 112 392 112H424C429.253 112 434.454 110.965 439.307 108.955C444.16 106.945 448.57 103.999 452.284 100.284C455.999 96.5699 458.945 92.1604 460.955 87.3073C462.965 82.4543 464 77.2529 464 72V40C464 29.3913 459.786 19.2172 452.284 11.7157C444.783 4.21427 434.609 0 424 0ZM448 40V72C448 78.3652 445.471 84.4697 440.971 88.9706C436.47 93.4714 430.365 96 424 96H392C385.635 96 379.53 93.4714 375.029 88.9706C370.529 84.4697 368 78.3652 368 72V40C368 33.6348 370.529 27.5303 375.029 23.0294C379.53 18.5286 385.635 16 392 16H424C430.365 16 436.47 18.5286 440.971 23.0294C445.471 27.5303 448 33.6348 448 40Z" fill="white"/>
<path d="M384 56C384 69.2548 394.745 80 408 80C421.255 80 432 69.2548 432 56C432 42.7452 421.255 32 408 32C394.745 32 384 42.7452 384 56Z" fill="white"/>
<path fill-rule="evenodd" clip-rule="evenodd" d="M40 464H72C82.6087 464 92.7828 459.786 100.284 452.284C103.999 448.57 106.945 444.16 108.955 439.307C110.965 434.454 112 429.253 112 424V392C112 381.391 107.786 371.217 100.284 363.716C92.7828 356.214 82.6087 352 72 352H40C29.3913 352 19.2172 356.214 11.7157 363.716C4.21427 371.217 0 381.391 0 392L0 424C0 429.253 1.03464 434.454 3.04483 439.307C5.05502 444.16 8.00139 448.57 11.7157 452.284C19.2172 459.786 29.3913 464 40 464ZM16 424V392C16 385.635 18.5286 379.53 23.0294 375.029C27.5303 370.529 33.6348 368 40 368H72C78.3652 368 84.4697 370.529 88.9706 375.029C93.4714 379.53 96 385.635 96 392V424C96 430.365 93.4714 436.47 88.9706 440.971C84.4697 445.471 78.3652 448 72 448H40C33.6348 448 27.5303 445.471 23.0294 440.971C18.5286 436.47 16 430.365 16 424Z" fill="white"/>
<path d="M80 408C80 394.745 69.2548 384 56 384C42.7452 384 32 394.745 32 408C32 421.255 42.7452 432 56 432C69.2548 432 80 421.255 80 408Z" fill="white"/>
</mask>
<g mask="url(#mask0_418_511)">
<path d="M482 -18H-18V482H482V-18Z" fill="black"/>
</g>
</svg>
